<svg width="32" height="32" viewBox="0 0 32 32" fill="none" xmlns="http://www.w3.org/2000/svg">
  <!-- Background -->
  <rect width="32" height="32" rx="8" fill="url(#amberGrad)"/>

  <!-- Squirrel face -->
  <!-- Head circle -->
  <circle cx="16" cy="17" r="10" fill="#FBBF24"/>

  <!-- Left ear -->
  <ellipse cx="9" cy="9" rx="3.5" ry="4.5" fill="#D97706" transform="rotate(-10 9 9)"/>
  <ellipse cx="9" cy="9" rx="2" ry="3" fill="#FFD4A8" transform="rotate(-10 9 9)"/>
  <!-- Right ear -->
  <ellipse cx="23" cy="9" rx="3.5" ry="4.5" fill="#D97706" transform="rotate(10 23 9)"/>
  <ellipse cx="23" cy="9" rx="2" ry="3" fill="#FFD4A8" transform="rotate(10 23 9)"/>

  <!-- Face -->
  <circle cx="16" cy="18" r="7" fill="#FFD4A8"/>

  <!-- Eyes -->
  <circle cx="13" cy="16" r="2" fill="#2D1B0E"/>
  <circle cx="19" cy="16" r="2" fill="#2D1B0E"/>
  <circle cx="13.6" cy="15.4" r="0.8" fill="white"/>
  <circle cx="19.6" cy="15.4" r="0.8" fill="white"/>

  <!-- Nose -->
  <ellipse cx="16" cy="19" rx="1.5" ry="1" fill="#2D1B0E"/>

  <!-- Smile -->
  <path d="M13.5 21 C14.5 22.5, 17.5 22.5, 18.5 21" stroke="#2D1B0E" stroke-width="0.8" stroke-linecap="round" fill="none"/>

  <!-- Cheeks -->
  <circle cx="10.5" cy="20" r="1.8" fill="#FFB8A8" opacity="0.5"/>
  <circle cx="21.5" cy="20" r="1.8" fill="#FFB8A8" opacity="0.5"/>

  <defs>
    <linearGradient id="amberGrad" x1="0" y1="0" x2="32" y2="32" gradientUnits="userSpaceOnUse">
      <stop offset="0%" stop-color="#FBBF24"/>
      <stop offset="100%" stop-color="#D97706"/>
    </linearGradient>
  </defs>
</svg>
